<?xml version="1.0" standalone="no"?>
<!DOCTYPE svg PUBLIC "-//W3C//DTD SVG 20010904//EN"
 "http://www.w3.org/TR/2001/REC-SVG-20010904/DTD/svg10.dtd">
<svg version="1.0" xmlns="http://www.w3.org/2000/svg"
 width="77.000000pt" height="58.000000pt" viewBox="0 0 77.000000 58.000000"
 preserveAspectRatio="xMidYMid meet">

<g transform="translate(0.000000,58.000000) scale(0.100000,-0.100000)"
fill="#000000" stroke="none">
<path d="M5 550 c-11 -17 7 -33 349 -299 243 -190 312 -239 322 -230 8 6 14
17 14 23 -1 14 -637 510 -660 514 -10 2 -21 -2 -25 -8z"/>
<path d="M305 493 c-74 -15 -69 -12 -49 -34 15 -17 26 -19 59 -15 90 14 229
-52 270 -127 18 -34 18 -35 -3 -62 -17 -21 -19 -31 -11 -41 6 -8 17 -14 23
-14 11 0 50 51 61 80 7 21 -47 101 -90 135 -73 55 -195 92 -260 78z"/>
<path d="M330 406 c0 -2 29 -27 65 -55 50 -40 65 -47 65 -33 0 25 -27 60 -60
77 -27 14 -70 21 -70 11z"/>
<path d="M78 363 c-45 -52 -47 -81 -9 -137 62 -90 206 -155 310 -141 63 9 77
18 55 36 -10 8 -43 14 -88 15 -101 2 -179 42 -234 119 l-25 35 22 31 c18 24
20 33 11 45 -16 18 -24 18 -42 -3z"/>
<path d="M230 264 c0 -43 73 -101 116 -92 13 2 0 17 -49 56 -47 36 -67 47 -67
36z"/>
</g>
</svg>
