<?xml version="1.0" standalone="no"?>
<!DOCTYPE svg PUBLIC "-//W3C//DTD SVG 20010904//EN"
 "http://www.w3.org/TR/2001/REC-SVG-20010904/DTD/svg10.dtd">
<svg version="1.0" xmlns="http://www.w3.org/2000/svg"
 width="68.000000pt" height="47.000000pt" viewBox="0 0 68.000000 47.000000"
 preserveAspectRatio="xMidYMid meet">

<g transform="translate(0.000000,47.000000) scale(0.100000,-0.100000)"
fill="#000000" stroke="none">
<path d="M214 390 c-64 -25 -126 -79 -160 -136 l-26 -44 26 -44 c107 -183 372
-215 525 -63 52 51 74 92 67 122 -9 37 -95 124 -150 152 -71 37 -207 43 -282
13z m249 -53 c44 -18 137 -105 137 -129 0 -5 -20 -31 -45 -57 -91 -97 -224
-123 -338 -67 -57 28 -127 97 -127 126 0 25 57 87 105 116 79 46 175 50 268
11z"/>
<path d="M315 307 c9 -33 -25 -71 -61 -72 -84 -1 4 -145 89 -145 89 0 145 98
102 179 -16 31 -69 61 -109 61 -23 0 -26 -3 -21 -23z"/>
</g>
</svg>
