<?xml version="1.0" standalone="no"?>
<!DOCTYPE svg PUBLIC "-//W3C//DTD SVG 20010904//EN"
 "http://www.w3.org/TR/2001/REC-SVG-20010904/DTD/svg10.dtd">
<svg version="1.0" xmlns="http://www.w3.org/2000/svg"
 width="225.000000pt" height="225.000000pt" viewBox="0 0 225.000000 225.000000"
 preserveAspectRatio="xMidYMid meet">

<g transform="translate(0.000000,225.000000) scale(0.100000,-0.100000)"
fill="#000000" stroke="none">
<path d="M200 1311 c-144 -54 -150 -57 -150 -77 0 -28 27 -24 146 21 65 25
123 45 128 45 5 0 63 -20 128 -45 91 -35 123 -43 133 -35 25 21 5 37 -83 70
-48 18 -107 41 -132 50 l-45 18 -125 -47z"/>
<path d="M717 1353 c-4 -3 -7 -111 -7 -240 0 -200 2 -233 15 -233 13 0 15 33
15 240 0 219 -3 253 -23 233z"/>
<path d="M1795 1326 c-27 -7 -59 -17 -71 -23 -16 -10 -22 -8 -32 8 -10 15 -23
19 -65 19 -106 -1 -207 -37 -207 -75 0 -25 17 -35 61 -35 l29 0 0 -135 c0
-147 9 -185 46 -185 29 0 34 16 34 104 0 40 3 106 7 147 l6 74 43 21 44 21 -8
-41 c-4 -23 -7 -94 -6 -160 0 -113 1 -119 25 -137 32 -25 68 -24 131 4 59 26
81 48 76 73 -6 32 -32 38 -84 21 -53 -17 -70 -11 -59 22 4 13 21 25 46 33 52
15 83 52 68 80 -11 20 -45 21 -91 3 -14 -6 -18 -2 -18 18 0 21 10 30 65 56 68
31 85 52 68 80 -13 21 -46 23 -108 7z"/>
<path d="M874 1318 c-12 -18 -23 -358 -13 -385 10 -26 50 -31 68 -9 6 8 15 33
19 57 6 38 11 44 35 47 26 3 27 2 27 -47 0 -53 17 -81 49 -81 30 0 43 49 54
205 12 172 4 207 -45 213 -23 3 -28 -2 -37 -35 -6 -21 -11 -64 -11 -95 0 -43
-4 -58 -14 -58 -8 0 -21 -3 -30 -6 -14 -5 -16 5 -16 72 0 44 -6 90 -13 104
-14 28 -60 39 -73 18z"/>
<path d="M1250 1312 c-89 -44 -124 -205 -73 -335 21 -53 56 -77 111 -77 38 0
49 5 77 35 47 49 58 91 53 199 -5 104 -22 146 -71 176 -39 24 -53 25 -97 2z
m67 -133 c27 -52 8 -183 -25 -177 -28 5 -43 49 -40 114 5 89 37 119 65 63z"/>
<path d="M1970 1294 c-31 -82 -31 -341 0 -379 16 -19 50 -19 120 0 68 18 105
45 105 76 0 22 -4 24 -50 24 -27 0 -62 -3 -77 -8 l-28 -7 0 140 c0 78 -5 150
-10 161 -15 28 -49 24 -60 -7z"/>
<path d="M120 1121 c-16 -31 -12 -49 15 -67 23 -15 27 -15 50 0 27 18 33 54
13 74 -19 19 -66 15 -78 -7z"/>
<path d="M237 1133 c-4 -3 -7 -30 -7 -59 l0 -53 -57 -3 c-50 -3 -58 -6 -58
-23 0 -18 7 -20 80 -20 l80 0 3 83 c3 75 1 82 -16 82 -10 0 -22 -3 -25 -7z"/>
<path d="M310 1030 l0 -60 116 0 117 0 -6 47 c-7 65 -22 73 -134 73 l-93 0 0
-60z"/>
<path d="M74 916 c-13 -33 6 -36 252 -36 l245 0 -3 23 -3 22 -243 3 c-206 2
-243 0 -248 -12z"/>
</g>
</svg>
